<!DOCTYPE svg PUBLIC "-//W3C//DTD SVG 20010904//EN" "http://www.w3.org/TR/2001/REC-SVG-20010904/DTD/svg10.dtd">
<svg version="1.0" xmlns="http://www.w3.org/2000/svg" width="406px" height="344px" viewBox="0 0 4060 3440" preserveAspectRatio="xMidYMid meet">
<g id="guest-wifi" fill="#000000" stroke="none">
 <path d="M425 3240 c-19 -8 -19 -9 3 -9 12 -1 22 -5 22 -11 0 -5 14 -10 30 -10 27 0 30 -3 30 -30 0 -27 -3 -30 -30 -30 l-30 0 0 -70 c0 -68 1 -70 25 -70 23 0 25 3 25 50 l0 50 35 0 35 0 0 -55 0 -55 -35 0 c-28 0 -35 -4 -35 -20 0 -18 -7 -20 -85 -20 l-85 0 0 -45 c0 -43 1 -45 30 -45 25 0 30 -4 30 -25 0 -24 -2 -25 -65 -25 l-65 0 0 -140 c0 -133 1 -140 20 -140 13 0 20 7 20 20 0 17 7 20 40 20 36 0 40 -2 40 -25 0 -22 -4 -25 -35 -25 -24 0 -35 -5 -35 -15 0 -11 11 -15 40 -15 38 0 40 -2 40 -30 0 -28 -3 -30 -35 -30 -28 0 -35 -4 -35 -20 0 -16 -7 -20 -30 -20 l-30 0 1 -137 c1 -76 4 -126 6 -110 3 21 10 27 29 27 21 0 24 5 24 35 0 34 1 35 40 35 39 0 40 -1 40 -35 0 -35 0 -35 45 -35 38 0 45 -3 45 -20 0 -16 7 -20 30 -20 25 0 30 -4 30 -25 0 -21 -5 -25 -30 -25 -16 0 -30 5 -30 10 0 6 -18 10 -40 10 -22 0 -40 5 -40 10 0 6 -27 10 -60 10 l-60 0 0 -45 0 -45 45 0 c38 0 45 -3 45 -20 0 -17 -7 -20 -45 -20 -33 0 -45 4 -45 15 0 8 -7 15 -15 15 -13 0 -15 -23 -15 -145 l0 -145 30 0 c25 0 30 -4 30 -25 0 -21 -5 -25 -30 -25 l-30 0 0 -135 0 -135 40 0 c39 0 40 -1 40 -35 0 -34 -1 -35 -40 -35 l-40 0 0 -45 0 -45 50 0 c49 0 50 -1 50 -30 0 -29 -1 -30 -50 -30 -43 0 -50 -3 -50 -20 0 -17 7 -20 40 -20 38 0 40 -2 40 -30 0 -28 -2 -30 -40 -30 l-40 0 0 -70 0 -70 30 0 c27 0 30 3 30 30 l0 30 65 0 65 0 0 -35 c0 -33 -2 -35 -35 -35 l-35 0 0 -55 c0 -54 0 -55 30 -55 27 0 30 3 30 30 0 28 3 30 35 30 l35 0 0 -60 0 -60 -30 0 c-20 0 -30 -5 -30 -15 0 -12 20 -15 120 -15 l120 0 0 40 0 40 -65 0 -65 0 0 35 c0 31 -3 35 -25 35 -21 0 -25 5 -25 30 0 30 1 30 55 30 54 0 55 0 55 30 0 28 2 30 40 30 29 0 40 4 40 15 0 12 -14 15 -70 15 l-70 0 0 50 0 50 -55 0 c-54 0 -55 0 -55 -30 0 -26 -3 -30 -29 -30 -27 0 -29 3 -35 49 -4 27 -4 68 0 90 6 37 5 41 -15 41 -17 0 -21 6 -21 30 0 27 3 30 30 30 25 0 30 -4 30 -25 0 -18 5 -25 20 -25 16 0 20 -7 20 -30 0 -30 1 -30 55 -30 48 0 55 2 55 20 0 16 -7 20 -35 20 -32 0 -35 2 -35 30 0 28 3 30 35 30 l35 0 0 135 0 135 -70 0 -70 0 0 40 c0 29 4 40 15 40 11 0 15 12 15 44 l0 45 55 6 55 7 0 109 0 109 -25 0 c-21 0 -25 5 -25 30 0 25 4 30 25 30 l25 0 0 165 0 165 -65 0 -65 0 0 35 0 35 65 0 65 0 0 45 0 45 -60 0 c-57 0 -60 1 -60 25 0 20 -5 25 -25 25 -18 0 -25 5 -25 20 0 16 7 20 30 20 23 0 30 -4 30 -20 0 -18 7 -20 55 -20 48 0 55 2 55 20 0 15 -7 20 -25 20 -21 0 -25 5 -25 30 0 25 4 30 25 30 18 0 25 5 25 20 0 15 -7 20 -25 20 -18 0 -25 5 -25 20 0 15 7 20 25 20 20 0 25 5 25 25 0 20 -5 25 -25 25 -18 0 -25 5 -25 20 0 18 -7 20 -55 20 -54 0 -55 0 -55 30 l0 30 80 0 c64 0 80 3 80 15 0 10 11 15 35 15 33 0 35 2 35 35 0 34 1 35 40 35 39 0 40 -1 40 -35 l0 -35 285 0 285 0 0 30 c0 28 3 30 35 30 32 0 35 -2 35 -30 l0 -30 185 0 185 0 0 30 c0 27 -3 30 -30 30 -27 0 -30 3 -30 30 0 28 -3 30 -35 30 -32 0 -35 2 -35 30 l0 30 101 0 102 0 -6 -90 -7 -90 125 0 125 0 0 25 c0 24 -3 25 -60 25 l-60 0 0 35 c0 33 2 35 33 35 l34 0 -1 90 0 90 -93 0 -93 0 0 -30 0 -30 -70 0 -70 0 0 30 0 30 -65 0 -65 0 0 -30 c0 -30 -1 -30 -55 -30 -54 0 -55 0 -55 -30 l0 -30 -65 0 c-63 0 -65 -1 -65 -25 l0 -25 125 0 125 0 0 -30 0 -30 -165 0 -165 0 0 24 c0 21 -6 24 -55 31 -50 6 -55 9 -55 31 0 19 5 24 24 24 20 0 24 6 30 46 9 72 9 74 -24 74 -27 0 -30 -3 -30 -30 0 -28 -3 -30 -35 -30 -32 0 -35 2 -35 30 l0 30 -95 0 -95 0 0 -30 c0 -27 -3 -30 -30 -30 -27 0 -30 -3 -30 -30 0 -27 3 -30 30 -30 25 0 30 -4 30 -25 0 -24 -2 -25 -65 -25 l-64 0 6 85 6 85 -134 -1 c-74 0 -143 -4 -154 -9z m255 -85 l0 -45 -50 0 -50 0 0 45 0 45 50 0 50 0 0 -45z m360 -55 c0 -20 -5 -30 -15 -30 -10 0 -15 -10 -15 -30 l0 -30 -90 0 -90 0 0 30 c0 27 3 30 30 30 27 0 30 3 30 30 l0 30 75 0 75 0 0 -30z m-590 -315 c0 -43 -1 -45 -30 -45 -27 0 -30 -3 -30 -30 0 -28 -2 -30 -40 -30 l-40 0 0 45 c0 43 1 45 29 45 45 0 61 10 61 36 0 19 5 24 25 24 23 0 25 -4 25 -45z m80 -525 c0 -38 -2 -40 -30 -40 -28 0 -30 2 -30 40 0 38 2 40 30 40 28 0 30 -2 30 -40z m-30 -205 c0 -21 -5 -25 -30 -25 -25 0 -30 4 -30 25 0 21 5 25 30 25 25 0 30 -4 30 -25z m20 -145 l0 -40 -55 0 c-54 0 -55 0 -55 -30 0 -30 -1 -30 -55 -30 -54 0 -55 0 -55 30 0 20 5 30 15 30 11 0 15 11 15 40 l0 40 95 0 95 0 0 -40z m-20 -95 c0 -21 -5 -25 -30 -25 -25 0 -30 4 -30 25 0 21 5 25 30 25 25 0 30 -4 30 -25z m-60 -65 c0 -16 -7 -20 -30 -20 -23 0 -30 4 -30 20 0 16 7 20 30 20 23 0 30 -4 30 -20z m-70 -185 l0 -95 -40 0 -40 0 0 95 0 95 40 0 40 0 0 -95z m130 -40 c0 -10 -11 -15 -35 -15 -24 0 -35 5 -35 15 0 10 11 15 35 15 24 0 35 -5 35 -15z m26 -116 c-3 -17 -6 -38 -6 -45 0 -8 -10 -14 -25 -14 -20 0 -25 5 -25 25 0 21 -5 25 -30 25 -23 0 -30 4 -30 20 0 18 7 20 61 20 l62 0 -7 -31z"/>
 <path d="M1280 3220 c0 -25 4 -30 25 -30 21 0 25 5 25 30 0 25 -4 30 -25 30 -21 0 -25 -5 -25 -30z"/>
 <path d="M2170 3215 c0 -33 -2 -35 -35 -35 -31 0 -35 -3 -35 -25 0 -24 2 -25 65 -25 l65 0 0 -55 c0 -52 -1 -55 -25 -55 -20 0 -25 5 -25 25 0 22 -4 25 -35 25 -31 0 -35 -3 -35 -25 0 -21 5 -25 30 -25 28 0 30 -3 30 -35 0 -32 2 -35 30 -35 28 0 30 3 30 35 l0 35 65 0 65 0 0 -35 0 -35 120 0 120 0 0 35 c0 34 1 35 40 35 38 0 40 2 40 30 0 28 3 30 35 30 32 0 35 -2 35 -30 0 -27 3 -30 30 -30 28 0 30 -3 30 -35 0 -32 2 -35 30 -35 l30 0 0 90 c0 89 0 90 25 90 19 0 25 5 25 23 0 12 3 39 6 60 l7 37 -132 0 -131 0 0 -30 0 -30 65 0 65 0 0 -35 0 -35 -65 0 c-63 0 -65 -1 -65 -25 0 -21 -5 -25 -30 -25 -25 0 -30 4 -30 25 0 22 -4 25 -35 25 -33 0 -35 2 -35 35 0 33 2 35 35 35 32 0 35 2 35 30 l0 30 -60 0 -60 0 0 -60 0 -60 -65 0 c-63 0 -65 1 -65 25 0 22 -4 25 -35 25 -33 0 -35 2 -35 35 l0 35 -60 0 -60 0 0 -35z m320 -170 c0 -24 -2 -25 -65 -25 -63 0 -65 1 -65 25 0 24 2 25 65 25 63 0 65 -1 65 -25z"/>
 <path d="M2360 3220 c0 -27 3 -30 30 -30 27 0 30 3 30 30 0 27 -3 30 -30 30 -27 0 -30 -3 -30 -30z"/>
 <path d="M3185 3190 l-7 -60 -54 0 c-53 0 -54 0 -54 30 0 28 -3 30 -35 30 -33 0 -35 -2 -35 -35 0 -33 -2 -35 -35 -35 l-35 0 0 -85 0 -85 125 0 125 0 0 30 c0 27 3 30 30 30 27 0 30 3 30 30 0 27 -3 30 -30 30 -25 0 -30 4 -30 25 0 24 2 25 65 25 l65 0 0 30 c0 28 3 30 35 30 33 0 35 2 35 35 0 32 -2 35 -30 35 -27 0 -30 -3 -30 -30 0 -28 -2 -30 -40 -30 -38 0 -40 2 -40 30 0 25 -4 30 -24 30 -22 0 -25 -5 -31 -60z m-65 -150 l0 -40 -65 0 -65 0 0 40 0 40 65 0 65 0 0 -40z"/>
 <path d="M3440 3215 c0 -33 2 -35 35 -35 32 0 35 -2 35 -30 l0 -30 -75 0 c-68 0 -75 -2 -75 -20 0 -18 7 -20 70 -20 56 0 70 -3 70 -15 0 -11 12 -15 45 -15 41 0 45 -2 45 -25 0 -23 -4 -25 -45 -25 -41 0 -45 -2 -45 -25 0 -18 -5 -25 -20 -25 -17 0 -20 -7 -20 -40 l0 -40 59 0 58 0 7 -37 c3 -21 6 -50 6 -65 0 -26 -3 -28 -40 -28 -39 0 -40 1 -40 35 0 31 -3 35 -25 35 -24 0 -25 -3 -25 -55 l0 -55 35 0 c32 0 35 -2 35 -30 0 -25 4 -30 25 -30 21 0 25 5 25 30 l0 30 70 0 70 0 0 -60 c0 -53 2 -60 20 -60 18 0 20 7 20 85 l0 85 -60 0 -60 0 0 115 0 115 35 0 35 0 0 -85 c0 -84 0 -85 25 -85 25 0 25 1 25 90 l0 90 -30 0 -30 0 0 65 0 65 -70 0 -70 0 0 65 0 65 -60 0 -60 0 0 -35z"/>
 <path d="M1210 3160 c0 -27 3 -30 30 -30 27 0 30 3 30 30 0 27 -3 30 -30 30 -27 0 -30 -3 -30 -30z"/>
 <path d="M297 3141 c-22 -38 -22 -41 8 -41 18 0 25 -5 25 -20 0 -16 -7 -20 -35 -20 -28 0 -35 -4 -35 -20 0 -13 7 -20 19 -20 10 0 39 -3 65 -6 l46 -7 0 72 0 71 -34 0 c-19 0 -36 5 -38 10 -2 6 -11 -2 -21 -19z"/>
 <path d="M3310 2980 c0 -27 3 -30 30 -30 27 0 30 3 30 30 0 27 -3 30 -30 30 -27 0 -30 -3 -30 -30z"/>
 <path d="M796 2639 c-9 -47 -7 -89 4 -89 6 0 10 -22 10 -50 0 -42 -3 -50 -18 -50 -17 0 -20 -14 -31 -117 -7 -65 -15 -128 -18 -140 -5 -21 -1 -23 31 -23 29 0 36 -4 36 -20 0 -16 -7 -20 -34 -20 -31 0 -46 -13 -46 -40 0 -5 21 -10 48 -12 l47 -3 3 -97 3 -98 -26 0 c-25 0 -25 1 -25 75 0 73 -1 75 -24 75 -32 0 -32 -1 -41 -87 -6 -63 -5 -73 9 -73 9 0 16 -7 16 -15 0 -11 11 -15 40 -15 36 0 40 -2 40 -25 0 -24 -3 -25 -59 -25 -64 0 -71 -6 -71 -61 l0 -29 65 0 c58 0 65 -2 65 -20 0 -18 -7 -20 -69 -20 l-68 0 -7 -46 c-3 -26 -6 -60 -6 -75 l0 -29 70 0 c56 0 70 -3 70 -15 0 -12 15 -15 79 -15 l79 0 6 31 c9 48 9 49 -29 49 -28 0 -35 -4 -35 -20 0 -15 -7 -20 -25 -20 -24 0 -25 2 -25 70 0 68 1 70 25 70 16 0 25 -6 25 -16 0 -12 9 -14 38 -12 l37 3 3 68 3 67 -32 0 c-26 0 -31 3 -26 20 4 17 0 20 -24 20 -24 0 -29 4 -29 25 0 21 5 25 30 25 17 0 30 5 30 10 0 6 13 10 29 10 34 0 41 14 41 81 l0 49 -65 0 -65 0 0 45 c0 45 0 45 35 45 33 0 35 2 35 36 l0 35 43 -3 c41 -3 42 -4 45 -43 4 -57 42 -412 49 -457 5 -36 7 -38 44 -38 32 0 39 3 39 20 0 15 -7 20 -25 20 -21 0 -25 5 -25 30 0 27 3 30 30 30 25 0 30 -4 30 -25 0 -18 5 -25 20 -25 15 0 20 -7 20 -25 0 -18 -5 -25 -20 -25 -15 0 -20 -7 -20 -25 0 -22 -4 -25 -40 -25 -43 0 -46 -6 -34 -69 l7 -31 83 0 84 0 0 75 c0 73 1 75 25 75 20 0 25 -5 25 -25 0 -24 3 -25 59 -25 58 0 59 0 64 33 4 17 9 80 13 140 7 105 6 107 -15 107 -16 0 -21 6 -21 25 0 24 -3 25 -55 25 -54 0 -55 0 -55 30 l0 30 79 0 c93 0 85 -13 97 160 8 118 10 116 19 -22 7 -95 8 -98 31 -98 15 0 24 -6 24 -15 0 -8 -9 -15 -20 -15 -16 0 -20 -7 -20 -30 0 -29 1 -30 50 -30 l50 0 0 45 c0 41 2 45 25 45 21 0 25 -5 25 -30 0 -28 3 -30 35 -30 31 0 35 -3 35 -25 0 -22 -4 -25 -35 -25 -19 0 -35 -4 -35 -10 0 -6 -30 -10 -71 -10 l-70 0 3 -47 c3 -44 5 -48 31 -51 23 -3 27 -8 27 -33 0 -29 0 -29 60 -29 53 0 60 -2 60 -20 0 -18 -7 -20 -80 -20 -79 0 -80 0 -80 -25 0 -24 2 -25 75 -25 73 0 75 -1 75 -25 0 -24 -2 -25 -71 -25 -69 0 -71 -1 -65 -22 3 -13 6 -35 6 -50 0 -24 4 -28 30 -28 25 0 30 4 30 25 0 21 5 25 30 25 23 0 30 4 30 20 0 16 7 20 35 20 28 0 35 4 35 20 0 16 7 20 30 20 25 0 30 4 30 25 0 18 5 25 20 25 16 0 20 -7 20 -30 0 -20 -5 -30 -15 -30 -9 0 -15 -9 -15 -25 0 -22 -4 -25 -35 -25 -24 0 -35 -5 -35 -15 0 -10 -11 -15 -35 -15 -28 0 -35 -4 -35 -20 0 -18 7 -20 65 -20 58 0 65 2 65 20 0 16 7 20 31 20 l30 0 -6 58 c-12 113 -12 112 -56 112 -37 0 -39 2 -39 30 0 28 3 30 36 30 l35 0 -3 43 c-3 38 -6 42 -30 45 -24 3 -28 0 -28 -22 0 -21 -5 -26 -25 -26 -24 0 -25 3 -25 55 l0 55 51 0 c43 0 50 3 45 16 -3 9 -6 18 -6 20 0 2 -16 4 -35 4 l-35 0 0 50 c0 49 1 50 30 50 23 0 30 5 30 19 0 33 -11 51 -31 51 -14 0 -19 -7 -19 -30 l0 -30 -65 0 c-51 0 -65 -3 -65 -15 0 -11 -11 -15 -40 -15 l-40 0 0 51 0 51 45 -4 c31 -2 45 1 45 9 0 8 14 13 35 13 24 0 35 5 35 15 0 11 11 15 40 15 45 0 46 3 34 108 l-7 52 -43 0 c-40 0 -44 2 -44 25 0 23 4 25 41 25 l41 0 -6 53 c-4 28 -9 69 -12 90 l-6 37 -59 0 -59 0 0 -35 c0 -31 3 -35 25 -35 23 0 25 -3 25 -50 l0 -50 -35 0 -35 0 0 50 c0 43 -3 50 -20 50 -16 0 -20 7 -20 35 0 31 -3 35 -25 35 -18 0 -25 5 -25 20 0 18 7 20 60 20 l60 0 0 35 c0 28 -4 35 -20 35 -11 0 -20 -7 -20 -15 0 -11 -11 -15 -40 -15 -29 0 -40 4 -40 15 0 8 -4 15 -10 15 -5 0 -10 -11 -10 -25 0 -18 -5 -25 -20 -25 -15 0 -20 7 -20 25 0 20 -5 25 -25 25 -23 0 -25 -3 -25 -50 l0 -50 -45 0 c-32 0 -45 -4 -45 -14 0 -7 -3 -28 -6 -45 -5 -24 -3 -31 10 -31 10 0 16 -9 16 -25 0 -18 -5 -25 -20 -25 -20 0 -20 1 -40 -130 -12 -82 -12 -100 0 -100 6 0 10 20 10 45 0 43 1 45 30 45 23 0 30 -4 30 -20 0 -16 7 -20 30 -20 25 0 30 -4 30 -25 0 -24 -3 -25 -55 -25 -54 0 -55 0 -55 -30 0 -23 -4 -30 -20 -30 -11 0 -20 -7 -20 -15 0 -12 15 -15 75 -15 68 0 75 -2 75 -20 0 -16 -7 -20 -30 -20 -27 0 -30 -3 -30 -30 0 -23 -4 -30 -20 -30 -16 0 -20 7 -20 30 0 25 -4 30 -24 30 -28 0 -30 7 -47 137 l-12 93 -39 0 c-34 0 -38 3 -38 25 0 22 4 25 36 25 32 0 36 2 31 23 -3 12 -9 50 -13 85 l-7 62 -38 0 c-35 0 -39 3 -39 25 0 22 -4 25 -35 25 -31 0 -35 3 -35 25 0 24 2 25 66 25 62 0 65 1 62 23 -3 20 -9 22 -70 25 -56 2 -68 0 -68 -13 0 -11 -11 -15 -40 -15 -29 0 -40 4 -40 15 0 10 -10 15 -30 15 -25 0 -30 -4 -30 -25 0 -14 5 -25 10 -25 6 0 10 -11 10 -25 0 -24 -2 -25 -70 -25 -68 0 -70 1 -70 25 0 21 5 25 30 25 25 0 30 4 30 25 0 21 -5 25 -29 25 -24 0 -29 -5 -35 -31z m214 -64 c0 -41 2 -45 25 -45 14 0 25 -4 25 -10 0 -5 7 -10 15 -10 10 0 15 -10 15 -30 0 -28 -2 -30 -40 -30 -36 0 -40 3 -40 25 0 23 -3 25 -50 25 -38 0 -50 4 -50 15 0 11 11 15 40 15 l40 0 0 45 c0 25 5 45 10 45 6 0 10 -20 10 -45z m460 -65 c0 -27 3 -30 30 -30 23 0 30 -4 30 -20 0 -12 -7 -20 -17 -20 -10 0 -35 -3 -55 -6 l-38 -7 0 57 c0 53 1 56 25 56 21 0 25 -5 25 -30z m-570 -60 c0 -17 -7 -20 -40 -20 -33 0 -40 3 -40 20 0 17 7 20 40 20 33 0 40 -3 40 -20z m270 0 c0 -11 -7 -20 -15 -20 -8 0 -15 9 -15 20 0 11 7 20 15 20 8 0 15 -9 15 -20z m0 -60 c0 -11 -7 -20 -15 -20 -8 0 -15 9 -15 20 0 11 7 20 15 20 8 0 15 -9 15 -20z m-120 -40 l0 -49 -62 -3 c-63 -3 -63 -3 -66 -35 l-3 -33 -60 0 c-59 0 -59 0 -59 30 0 25 4 30 25 30 23 0 25 4 25 45 0 38 3 45 20 45 11 0 20 5 20 10 0 6 33 10 80 10 l80 0 0 -50z m420 -5 l0 -55 -50 0 -50 0 0 55 0 55 50 0 50 0 0 -55z m100 20 c0 -21 -5 -25 -30 -25 -25 0 -30 4 -30 25 0 21 5 25 30 25 25 0 30 -4 30 -25z m-420 -85 l0 -60 -35 0 -35 0 0 60 0 60 35 0 35 0 0 -60z m540 40 c0 -16 -7 -20 -30 -20 -23 0 -30 4 -30 20 0 16 7 20 30 20 23 0 30 -4 30 -20z m50 -60 c0 -16 -7 -20 -30 -20 -20 0 -30 -5 -30 -15 0 -12 -14 -15 -65 -15 -63 0 -65 1 -65 25 0 24 2 25 65 25 37 0 65 4 65 10 0 6 14 10 30 10 23 0 30 -4 30 -20z m-740 -35 c0 -21 -5 -25 -30 -25 -25 0 -30 4 -30 25 0 21 5 25 30 25 25 0 30 -4 30 -25z m-70 -45 c0 -23 -4 -30 -20 -30 -16 0 -20 7 -20 30 0 23 4 30 20 30 16 0 20 -7 20 -30z m230 -55 c0 -63 1 -65 25 -65 20 0 25 -5 25 -25 0 -23 -3 -25 -51 -25 l-52 0 7 38 c3 20 6 61 6 90 0 45 3 52 20 52 18 0 20 -7 20 -65z m110 -165 c0 -47 -2 -50 -25 -50 -20 0 -25 -5 -25 -25 0 -20 -5 -25 -25 -25 -23 0 -25 3 -25 50 0 47 2 50 25 50 20 0 25 5 25 25 0 20 5 25 25 25 23 0 25 -3 25 -50z m-290 -20 c0 -16 -7 -20 -30 -20 -23 0 -30 4 -30 20 0 16 7 20 30 20 23 0 30 -4 30 -20z m400 -95 c0 -21 -5 -25 -30 -25 -25 0 -30 4 -30 25 0 21 5 25 30 25 25 0 30 -4 30 -25z m-110 -50 c0 -18 -5 -25 -20 -25 -13 0 -20 -7 -20 -20 0 -15 -7 -20 -25 -20 -18 0 -25 5 -25 20 0 13 7 20 20 20 15 0 20 7 20 25 0 20 5 25 25 25 20 0 25 -5 25 -25z m470 0 c0 -24 -2 -25 -65 -25 -63 0 -65 1 -65 25 0 24 2 25 65 25 63 0 65 -1 65 -25z m-360 -45 c0 -17 -7 -20 -45 -20 -38 0 -45 3 -45 20 0 17 7 20 45 20 38 0 45 -3 45 -20z m-510 -25 c0 -20 -5 -25 -25 -25 -20 0 -25 5 -25 25 0 20 5 25 25 25 20 0 25 -5 25 -25z m-90 -165 c0 -27 -3 -30 -30 -30 -27 0 -30 3 -30 30 0 27 3 30 30 30 27 0 30 -3 30 -30z"/>
 <path d="M1940 2620 c0 -49 1 -50 30 -50 23 0 30 -4 30 -20 0 -17 7 -20 50 -20 43 0 50 3 50 20 0 15 7 20 25 20 23 0 25 -4 25 -45 l0 -45 -99 0 c-86 0 -100 2 -104 18 -3 9 -5 -34 -6 -95 l-1 -113 30 0 c25 0 30 -4 30 -25 0 -21 -5 -25 -30 -25 -25 0 -30 -4 -30 -25 0 -24 3 -25 55 -25 l55 0 0 65 c0 63 -1 65 -25 65 -20 0 -25 5 -25 25 0 20 5 25 25 25 20 0 25 5 25 25 0 20 5 25 25 25 20 0 25 -5 25 -25 0 -20 5 -25 25 -25 20 0 25 -5 25 -25 0 -20 -5 -25 -25 -25 -24 0 -25 -2 -25 -65 0 -63 1 -65 25 -65 23 0 25 4 25 45 0 41 2 45 25 45 23 0 25 3 25 50 0 49 1 50 30 50 l30 0 0 90 0 90 -50 0 c-47 0 -50 2 -50 25 0 20 5 25 25 25 21 0 25 5 25 30 0 27 -3 30 -30 30 -27 0 -30 -3 -30 -30 0 -25 -4 -30 -25 -30 -21 0 -25 5 -25 30 0 23 -4 30 -20 30 -15 0 -20 -7 -20 -25 0 -21 -5 -25 -30 -25 -25 0 -30 4 -30 25 0 21 -5 25 -30 25 -29 0 -30 -1 -30 -50z m270 -170 c0 -16 -7 -20 -30 -20 -23 0 -30 4 -30 20 0 16 7 20 30 20 23 0 30 -4 30 -20z"/>
 <path d="M2440 2645 c0 -21 -5 -25 -30 -25 -30 0 -30 -1 -30 -55 0 -54 0 -55 30 -55 23 0 30 -4 30 -20 0 -15 7 -20 25 -20 20 0 25 5 25 25 0 18 -5 25 -19 25 -13 0 -20 10 -25 31 -11 57 -8 69 19 69 20 0 25 -5 25 -25 0 -18 5 -25 20 -25 15 0 20 -7 20 -25 0 -23 4 -25 45 -25 41 0 45 2 45 25 0 23 4 25 40 25 33 0 40 3 40 20 0 17 -7 20 -40 20 -38 0 -40 2 -40 30 0 23 -4 30 -20 30 -15 0 -20 -7 -20 -25 0 -20 -5 -25 -25 -25 -20 0 -25 5 -25 25 0 23 -4 25 -45 25 -41 0 -45 -2 -45 -25z"/>
 <path d="M2970 2620 c0 -49 1 -50 30 -50 23 0 30 -4 30 -20 0 -17 7 -20 50 -20 43 0 50 3 50 20 0 15 7 20 25 20 23 0 25 -4 25 -45 l0 -45 -99 0 c-86 0 -100 2 -104 18 -3 9 -5 -34 -6 -95 l-1 -113 30 0 c25 0 30 -4 30 -25 0 -21 -5 -25 -30 -25 -25 0 -30 -4 -30 -25 0 -24 3 -25 55 -25 l55 0 0 65 c0 63 -1 65 -25 65 -20 0 -25 5 -25 25 0 20 5 25 25 25 20 0 25 5 25 25 0 20 5 25 25 25 20 0 25 -5 25 -25 0 -20 5 -25 25 -25 20 0 25 -5 25 -25 0 -20 -5 -25 -25 -25 -24 0 -25 -2 -25 -65 0 -63 1 -65 25 -65 23 0 25 4 25 45 0 41 2 45 25 45 23 0 25 3 25 50 0 49 1 50 30 50 l30 0 0 90 0 90 -50 0 c-47 0 -50 2 -50 25 0 20 5 25 25 25 21 0 25 5 25 30 0 27 -3 30 -30 30 -27 0 -30 -3 -30 -30 0 -25 -4 -30 -25 -30 -21 0 -25 5 -25 30 0 23 -4 30 -20 30 -15 0 -20 -7 -20 -25 0 -21 -5 -25 -30 -25 -25 0 -30 4 -30 25 0 21 -5 25 -30 25 -29 0 -30 -1 -30 -50z m270 -170 c0 -16 -7 -20 -30 -20 -23 0 -30 4 -30 20 0 16 7 20 30 20 23 0 30 -4 30 -20z"/>
 <path d="M3460 2575 l0 -65 30 0 c25 0 30 -4 30 -25 0 -21 -5 -25 -30 -25 -28 0 -30 -3 -30 -35 0 -32 2 -35 30 -35 28 0 30 3 30 35 l0 35 60 0 60 0 0 85 c0 84 0 85 -25 85 -20 0 -25 -5 -25 -25 0 -22 -4 -25 -40 -25 -38 0 -40 2 -40 30 0 25 -4 30 -25 30 -24 0 -25 -2 -25 -65z"/>
 <path d="M260 2470 c0 -13 7 -20 20 -20 13 0 20 7 20 20 0 13 -7 20 -20 20 -13 0 -20 -7 -20 -20z"/>
 <path d="M2563 2463 c-65 -3 -73 -6 -73 -23 0 -15 -7 -20 -25 -20 -18 0 -25 -5 -25 -20 0 -15 7 -20 25 -20 20 0 25 -5 25 -25 0 -24 -3 -25 -55 -25 l-55 0 0 -45 c0 -43 1 -45 30 -45 l30 0 0 -75 c0 -73 1 -75 25 -75 23 0 25 3 25 50 l0 50 45 0 45 0 0 70 c0 68 -1 70 -25 70 -18 0 -25 5 -25 20 0 15 7 20 25 20 20 0 25 5 25 25 0 18 5 25 20 25 15 0 20 -7 20 -25 0 -22 4 -25 40 -25 l40 0 0 50 0 50 -32 -2 c-18 -1 -66 -4 -105 -5z m-23 -203 c0 -15 -7 -20 -25 -20 -18 0 -25 5 -25 20 0 15 7 20 25 20 18 0 25 -5 25 -20z"/>
 <path d="M2380 2445 c0 -10 10 -15 30 -15 20 0 30 5 30 15 0 10 -10 15 -30 15 -20 0 -30 -5 -30 -15z"/>
 <path d="M3660 2425 l0 -35 -65 0 c-58 0 -65 -2 -65 -20 0 -16 -7 -20 -35 -20 l-35 0 0 -70 0 -70 60 0 c57 0 60 -1 60 -25 0 -20 -5 -25 -25 -25 -21 0 -25 -5 -25 -30 0 -28 3 -30 35 -30 32 0 35 -2 35 -30 0 -28 -3 -30 -35 -30 -31 0 -35 -3 -35 -25 0 -20 5 -25 25 -25 24 0 25 -3 25 -60 l0 -60 -35 0 c-31 0 -35 3 -35 25 0 20 -5 25 -25 25 l-25 0 0 -205 0 -205 30 0 30 0 0 -115 0 -115 30 0 c27 0 30 -3 30 -30 0 -27 3 -30 30 -30 l30 0 0 90 0 90 40 0 c38 0 40 -2 40 -30 0 -23 4 -30 20 -30 17 0 20 7 20 50 0 49 -1 50 -30 50 l-30 0 0 65 c0 63 -1 65 -25 65 -24 0 -25 -3 -25 -60 l0 -60 -35 0 -35 0 0 55 c0 54 0 55 -30 55 -28 0 -30 3 -30 35 0 33 2 35 35 35 32 0 35 -2 35 -30 0 -25 4 -30 25 -30 24 0 25 3 25 60 l0 60 -55 0 c-52 0 -55 1 -55 25 0 25 1 25 90 25 l90 0 0 -55 c0 -52 1 -55 25 -55 24 0 25 3 25 60 0 57 -1 60 -25 60 -21 0 -25 5 -25 30 0 28 -3 30 -35 30 l-35 0 0 60 0 60 35 0 c32 0 35 -2 35 -30 0 -25 4 -30 25 -30 l25 0 0 115 0 115 -30 0 -30 0 0 65 0 65 30 0 c27 0 30 3 30 30 l0 30 -120 0 c-100 0 -120 3 -120 15 0 13 20 15 120 15 l120 0 0 40 c0 36 -2 40 -25 40 -21 0 -25 5 -25 30 0 25 -4 30 -25 30 -22 0 -25 -4 -25 -35z"/>
 <path d="M2630 2260 c0 -63 2 -70 20 -70 15 0 20 -7 20 -25 0 -24 -2 -25 -70 -25 l-70 0 0 -45 c0 -41 2 -45 25 -45 20 0 25 -5 25 -25 0 -23 -4 -25 -45 -25 -38 0 -45 3 -45 20 0 18 -7 20 -55 20 l-55 0 0 -70 0 -70 35 0 35 0 0 50 c0 43 3 50 20 50 19 0 20 -7 20 -95 l0 -95 -55 0 c-52 0 -55 -1 -55 -25 0 -24 3 -25 55 -25 48 0 55 -2 55 -20 0 -13 7 -20 20 -20 13 0 20 7 20 20 0 15 7 20 25 20 20 0 25 -5 25 -25 0 -20 -5 -25 -25 -25 -18 0 -25 -5 -25 -20 0 -13 -7 -20 -20 -20 -13 0 -20 7 -20 20 0 18 -7 20 -55 20 l-55 0 0 -90 0 -90 30 0 c25 0 30 -4 30 -25 0 -18 5 -25 20 -25 13 0 20 7 20 20 0 15 7 20 25 20 18 0 25 -5 25 -20 0 -13 7 -20 20 -20 13 0 20 7 20 20 0 13 -7 20 -20 20 -14 0 -20 7 -20 24 0 20 6 25 40 31 30 5 40 11 40 26 0 14 7 19 25 19 20 0 25 5 25 25 0 20 5 25 26 25 25 0 26 -1 20 -45 l-7 -45 40 0 41 0 0 -50 c0 -47 2 -50 25 -50 20 0 25 5 25 25 0 18 5 25 20 25 15 0 20 -7 20 -25 0 -18 5 -25 20 -25 19 0 20 7 20 120 l0 120 -40 0 c-36 0 -40 -2 -40 -25 0 -22 -4 -25 -40 -25 -36 0 -40 3 -40 25 0 27 -8 29 -59 19 -21 -5 -31 -12 -31 -25 0 -12 -7 -19 -20 -19 -17 0 -20 7 -20 45 l0 45 40 0 40 0 0 90 0 90 40 0 40 0 0 60 c0 57 1 60 25 60 24 0 25 -3 25 -60 l0 -60 30 0 30 0 0 60 0 60 -30 0 c-23 0 -30 4 -30 20 0 16 7 20 30 20 28 0 30 3 30 35 l0 35 -95 0 -95 0 0 80 0 80 -35 0 -35 0 0 -70z m110 -205 c0 -38 -3 -45 -20 -45 -15 0 -20 7 -20 25 0 18 -5 25 -20 25 -13 0 -20 7 -20 20 0 17 7 20 40 20 l40 0 0 -45z m-110 -105 c0 -43 -3 -50 -20 -50 -17 0 -20 7 -20 50 0 43 3 50 20 50 17 0 20 -7 20 -50z m-50 -45 c0 -52 -1 -55 -25 -55 -24 0 -25 3 -25 55 0 52 1 55 25 55 24 0 25 -3 25 -55z m40 -120 c0 -18 -5 -25 -20 -25 -15 0 -20 7 -20 25 0 18 5 25 20 25 15 0 20 -7 20 -25z m-40 -140 c0 -18 -5 -25 -20 -25 -15 0 -20 7 -20 25 0 18 5 25 20 25 15 0 20 -7 20 -25z m-50 -50 c0 -22 -4 -25 -40 -25 -36 0 -40 3 -40 25 0 23 4 25 40 25 36 0 40 -2 40 -25z m340 5 c0 -17 -7 -20 -45 -20 -38 0 -45 3 -45 20 0 17 7 20 45 20 38 0 45 -3 45 -20z"/>
 <path d="M2210 2255 c0 -20 5 -25 25 -25 20 0 25 5 25 25 0 20 -5 25 -25 25 -20 0 -25 -5 -25 -25z"/>
 <path d="M3240 2255 c0 -20 5 -25 25 -25 20 0 25 5 25 25 0 20 -5 25 -25 25 -20 0 -25 -5 -25 -25z"/>
 <path d="M2160 2165 c0 -25 -1 -25 -80 -25 l-80 0 0 -45 c0 -41 2 -45 25 -45 20 0 25 5 25 25 l0 25 105 0 105 0 0 45 0 45 -50 0 c-47 0 -50 -2 -50 -25z"/>
 <path d="M3190 2165 c0 -25 -1 -25 -80 -25 l-80 0 0 -45 c0 -41 2 -45 25 -45 20 0 25 5 25 25 l0 25 105 0 105 0 0 45 0 45 -50 0 c-47 0 -50 -2 -50 -25z"/>
 <path d="M3460 2070 c0 -16 7 -20 30 -20 23 0 30 4 30 20 0 16 -7 20 -30 20 -23 0 -30 -4 -30 -20z"/>
 <path d="M2060 2025 c0 -24 -3 -25 -60 -25 l-60 0 0 -140 0 -140 30 0 c25 0 30 -4 30 -25 0 -20 5 -25 25 -25 21 0 25 -5 25 -30 0 -25 -4 -30 -25 -30 -16 0 -25 -6 -25 -15 0 -10 -10 -15 -30 -15 -29 0 -30 -1 -30 -50 0 -49 1 -50 30 -50 25 0 30 4 30 25 0 21 5 25 30 25 25 0 30 -4 30 -25 0 -20 5 -25 25 -25 24 0 25 2 25 75 0 73 1 75 25 75 20 0 25 -5 25 -25 0 -23 3 -25 50 -25 l50 0 0 155 0 155 -55 0 c-54 0 -55 0 -55 30 0 30 1 30 55 30 l55 0 0 50 c0 47 -2 50 -25 50 -21 0 -25 -5 -25 -30 0 -27 -3 -30 -30 -30 -27 0 -30 3 -30 30 0 29 -2 30 -45 30 -41 0 -45 -2 -45 -25z m60 -80 c0 -43 -1 -45 -30 -45 -23 0 -30 -4 -30 -20 0 -16 -7 -20 -30 -20 -29 0 -30 1 -30 50 0 49 1 50 30 50 20 0 30 5 30 15 0 10 10 15 30 15 29 0 30 -2 30 -45z m90 -115 c0 -27 -3 -30 -30 -30 -27 0 -30 3 -30 30 0 27 3 30 30 30 27 0 30 -3 30 -30z m-100 -30 l0 -30 60 0 60 0 0 -30 0 -30 -65 0 -65 0 0 30 c0 25 -4 30 -25 30 -21 0 -25 5 -25 30 0 27 3 30 30 30 27 0 30 -3 30 -30z m-50 -60 c0 -16 -7 -20 -30 -20 -23 0 -30 4 -30 20 0 16 7 20 30 20 23 0 30 -4 30 -20z"/>
 <path d="M3090 2025 c0 -24 -3 -25 -60 -25 l-60 0 0 -140 0 -140 30 0 c25 0 30 -4 30 -25 0 -20 5 -25 25 -25 21 0 25 -5 25 -30 0 -25 -4 -30 -25 -30 -16 0 -25 -6 -25 -15 0 -10 -10 -15 -30 -15 -29 0 -30 -1 -30 -50 0 -49 1 -50 30 -50 25 0 30 4 30 25 0 21 5 25 30 25 25 0 30 -4 30 -25 0 -20 5 -25 25 -25 24 0 25 2 25 75 0 73 1 75 25 75 20 0 25 -5 25 -25 0 -23 3 -25 50 -25 l50 0 0 155 0 155 -55 0 c-54 0 -55 0 -55 30 0 30 1 30 55 30 l55 0 0 50 c0 47 -2 50 -25 50 -21 0 -25 -5 -25 -30 0 -27 -3 -30 -30 -30 -27 0 -30 3 -30 30 0 29 -2 30 -45 30 -41 0 -45 -2 -45 -25z m60 -80 c0 -43 -1 -45 -30 -45 -23 0 -30 -4 -30 -20 0 -16 -7 -20 -30 -20 -29 0 -30 1 -30 50 0 49 1 50 30 50 20 0 30 5 30 15 0 10 10 15 30 15 29 0 30 -2 30 -45z m90 -115 c0 -27 -3 -30 -30 -30 -27 0 -30 3 -30 30 0 27 3 30 30 30 27 0 30 -3 30 -30z m-100 -30 l0 -30 60 0 60 0 0 -30 0 -30 -65 0 -65 0 0 30 c0 25 -4 30 -25 30 -21 0 -25 5 -25 30 0 27 3 30 30 30 27 0 30 -3 30 -30z m-50 -60 c0 -16 -7 -20 -30 -20 -23 0 -30 4 -30 20 0 16 7 20 30 20 23 0 30 -4 30 -20z"/>
 <path d="M980 1825 c0 -14 5 -25 10 -25 6 0 10 11 10 25 0 14 -4 25 -10 25 -5 0 -10 -11 -10 -25z"/>
 <path d="M530 1690 c0 -11 7 -20 15 -20 8 0 15 9 15 20 0 11 -7 20 -15 20 -8 0 -15 -9 -15 -20z"/>
 <path d="M1940 1645 c0 -10 10 -15 30 -15 20 0 30 5 30 15 0 10 -10 15 -30 15 -20 0 -30 -5 -30 -15z"/>
 <path d="M2970 1645 c0 -10 10 -15 30 -15 20 0 30 5 30 15 0 10 -10 15 -30 15 -20 0 -30 -5 -30 -15z"/>
 <path d="M2610 1525 l0 -45 45 0 45 0 0 45 0 45 -45 0 -45 0 0 -45z"/>
 <path d="M1330 1510 c0 -30 1 -30 55 -30 30 0 55 3 55 8 0 4 3 17 6 30 6 21 4 22 -55 22 l-61 0 0 -30z"/>
 <path d="M2160 1505 c0 -21 5 -25 30 -25 25 0 30 4 30 25 0 21 -5 25 -30 25 -25 0 -30 -4 -30 -25z"/>
 <path d="M3190 1505 c0 -21 5 -25 30 -25 25 0 30 4 30 25 0 21 -5 25 -30 25 -25 0 -30 -4 -30 -25z"/>
 <path d="M3460 1215 l0 -65 34 0 c31 0 34 -3 40 -37 3 -21 6 -57 6 -80 0 -41 1 -43 30 -43 27 0 30 -3 30 -30 l0 -30 65 0 c64 0 65 0 66 -27 l1 -28 13 30 c8 17 14 51 15 78 0 44 -2 47 -25 47 -24 0 -25 2 -25 70 0 68 1 70 25 70 24 0 25 3 25 55 0 48 -2 55 -20 55 -16 0 -20 -7 -20 -35 0 -33 -2 -35 -35 -35 -31 0 -35 -3 -35 -25 0 -24 -2 -25 -65 -25 l-64 0 -7 60 c-6 55 -9 60 -30 60 -23 0 -24 -3 -24 -65z"/>
 <path d="M760 1035 c0 -12 14 -15 65 -15 l65 0 0 -30 c0 -26 -3 -30 -29 -30 -26 0 -29 -3 -34 -46 -3 -26 -2 -73 0 -105 l6 -59 128 0 c108 0 129 2 129 15 0 9 9 15 25 15 16 0 25 -6 25 -15 0 -12 14 -15 65 -15 51 0 65 -3 65 -15 0 -10 10 -15 30 -15 25 0 30 -4 30 -25 0 -22 4 -25 35 -25 l35 0 0 55 0 55 -65 0 -65 0 0 30 0 30 90 0 90 0 0 -90 c0 -89 0 -90 -25 -90 -24 0 -25 -3 -25 -60 l0 -60 -35 0 -35 0 0 60 0 60 -30 0 -30 0 0 -145 0 -145 30 0 c27 0 30 -3 30 -30 0 -27 3 -30 30 -30 l30 0 0 90 0 90 40 0 c38 0 40 -2 40 -30 0 -25 4 -30 25 -30 22 0 25 -4 25 -35 0 -31 -3 -35 -25 -35 -21 0 -25 -5 -25 -30 0 -28 -2 -30 -40 -30 l-40 0 0 -55 c0 -54 1 -57 33 -70 l32 -13 3 44 c3 41 5 44 33 44 29 0 29 1 29 55 l0 55 35 0 c33 0 35 2 35 35 l0 35 95 0 95 0 0 -30 0 -30 -60 0 -60 0 0 -30 c0 -28 -3 -30 -35 -30 -33 0 -35 -2 -35 -35 0 -32 -2 -35 -30 -35 -28 0 -30 -2 -30 -40 l0 -40 190 0 190 0 0 35 0 35 65 0 65 0 0 -35 0 -35 60 0 60 0 0 35 c0 32 2 35 30 35 25 0 30 4 30 25 l0 25 -130 0 -130 0 0 35 c0 31 -3 35 -25 35 -21 0 -25 5 -25 30 0 28 3 30 35 30 32 0 35 -2 35 -30 l0 -30 120 0 120 0 0 30 c0 28 -3 30 -35 30 -31 0 -35 3 -35 25 l0 25 -125 0 -125 0 0 -80 0 -80 -30 0 -30 0 0 80 0 80 -125 0 c-104 0 -125 -2 -125 -15 0 -10 -11 -15 -35 -15 l-35 0 0 55 c0 52 1 55 25 55 21 0 25 5 25 30 0 25 -4 30 -25 30 -20 0 -25 -5 -25 -25 0 -21 -5 -25 -30 -25 l-30 0 0 85 0 85 30 0 c30 0 30 1 30 55 0 54 0 55 -30 55 -28 0 -30 3 -30 35 l0 35 -65 0 -65 0 0 30 c0 27 -3 30 -30 30 -27 0 -30 3 -30 30 l0 30 -70 0 c-56 0 -70 3 -70 15 0 9 -9 15 -25 15 -24 0 -25 -2 -25 -75 l0 -75 -30 0 c-27 0 -30 3 -30 30 0 28 -3 30 -35 30 -31 0 -35 3 -35 25 0 22 4 25 35 25 28 0 35 4 35 20 0 16 -7 20 -30 20 -20 0 -30 -5 -30 -15 0 -10 -11 -15 -35 -15 -24 0 -35 5 -35 15 0 12 -14 15 -65 15 -51 0 -65 -3 -65 -15z m450 -97 c0 -13 -3 -40 -6 -60 l-7 -38 -58 0 c-59 0 -59 0 -59 30 0 27 3 30 30 30 27 0 30 3 30 30 0 28 3 30 35 30 30 0 35 -3 35 -22z m570 -663 c0 -33 -2 -35 -35 -35 -33 0 -35 2 -35 35 0 33 2 35 35 35 33 0 35 -2 35 -35z m60 -75 c0 -27 -3 -30 -30 -30 -27 0 -30 3 -30 30 0 27 3 30 30 30 27 0 30 -3 30 -30z"/>
 <path d="M1350 1035 c0 -12 13 -15 55 -15 54 0 55 0 55 -30 0 -28 3 -30 35 -30 32 0 35 -2 35 -30 0 -27 3 -30 30 -30 l30 0 0 -95 0 -95 -35 0 c-31 0 -35 -3 -35 -25 0 -24 3 -25 60 -25 l60 0 0 90 0 90 70 0 70 0 0 -30 c0 -28 3 -30 35 -30 32 0 35 -2 35 -30 0 -27 3 -30 30 -30 27 0 30 3 30 30 0 25 4 30 25 30 18 0 25 5 25 20 0 18 -7 20 -60 20 l-60 0 0 30 c0 28 3 30 35 30 32 0 35 2 35 30 0 28 -3 30 -35 30 -32 0 -35 2 -35 30 0 25 -4 30 -25 30 -20 0 -25 -5 -25 -25 0 -24 -2 -25 -70 -25 -68 0 -70 -1 -70 -25 0 -21 -5 -25 -30 -25 -27 0 -30 3 -30 30 0 27 3 30 30 30 27 0 30 3 30 30 l0 30 65 0 c51 0 65 3 65 15 0 13 -31 15 -215 15 -184 0 -215 -2 -215 -15z"/>
 <path d="M2030 1025 c0 -24 -3 -25 -55 -25 -54 0 -55 0 -55 -30 0 -25 4 -30 25 -30 21 0 25 -5 25 -30 0 -27 3 -30 30 -30 l30 0 0 -60 0 -60 -30 0 c-29 0 -30 -1 -30 -50 l0 -50 100 0 100 0 0 35 c0 35 0 35 45 35 45 0 45 0 45 -35 l0 -35 105 0 105 0 0 -100 0 -100 -90 0 c-89 0 -90 0 -90 -25 0 -24 3 -25 60 -25 l60 0 0 -35 c0 -32 -2 -35 -30 -35 -30 0 -30 -1 -30 -55 l0 -55 -60 0 -60 0 0 -35 0 -35 60 0 60 0 0 35 c0 32 2 35 30 35 28 0 30 -3 30 -35 0 -33 2 -35 35 -35 33 0 35 2 35 35 0 32 2 35 30 35 28 0 30 -3 30 -36 0 -36 0 -37 36 -31 46 8 136 60 112 65 -15 3 -18 14 -18 63 0 59 0 59 30 59 29 0 30 -2 31 -42 l1 -43 19 40 c26 55 25 105 -1 105 -16 0 -20 7 -20 30 0 27 -3 30 -30 30 -27 0 -30 -3 -30 -30 l0 -30 -65 0 -65 0 0 30 c0 27 -3 30 -30 30 -27 0 -30 3 -30 30 0 27 3 30 30 30 l30 0 0 60 0 60 30 0 30 0 0 115 0 115 -30 0 -30 0 0 -90 0 -90 -65 0 -65 0 0 30 c0 27 -3 30 -30 30 -27 0 -30 3 -30 30 0 27 3 30 30 30 27 0 30 3 30 30 0 28 3 30 35 30 32 0 35 2 35 30 l0 30 130 0 130 0 0 -60 0 -60 -35 0 -35 0 0 -145 0 -145 35 0 c32 0 35 -2 35 -30 0 -20 5 -30 15 -30 12 0 15 17 15 90 0 83 -1 90 -20 90 -17 0 -20 7 -20 50 l0 50 35 0 c33 0 35 2 35 35 l0 35 95 0 95 0 0 -35 0 -35 80 0 c79 0 80 0 80 25 0 20 -5 25 -25 25 -24 0 -25 2 -25 65 l0 65 30 0 30 0 0 60 0 60 -85 0 c-84 0 -85 0 -85 -25 0 -24 -3 -25 -60 -25 l-60 0 0 -35 c0 -34 -1 -35 -40 -35 l-40 0 0 60 0 60 -30 0 c-25 0 -30 -4 -30 -25 0 -25 0 -25 -95 -25 -95 0 -95 0 -95 25 0 24 -3 25 -60 25 -57 0 -60 -1 -60 -25 0 -22 -4 -25 -35 -25 l-35 0 0 -55 0 -55 -65 0 c-63 0 -65 1 -65 25 0 21 5 25 30 25 27 0 30 3 30 33 0 17 3 42 6 55 6 19 3 22 -25 22 -26 0 -31 -4 -31 -25 0 -21 -5 -25 -30 -25 l-30 0 0 -90 0 -90 60 0 60 0 0 -30 0 -30 -100 0 -100 0 0 120 0 120 30 0 c25 0 30 4 30 25 0 24 -3 25 -60 25 -57 0 -60 -1 -60 -25z m450 -705 c0 -27 -3 -30 -30 -30 -27 0 -30 3 -30 30 0 27 3 30 30 30 27 0 30 -3 30 -30z m130 -60 c0 -28 -3 -30 -35 -30 -32 0 -35 2 -35 30 0 28 3 30 35 30 32 0 35 -2 35 -30z"/>
 <path d="M3220 960 c0 -89 0 -90 -25 -90 -21 0 -25 -5 -25 -30 0 -25 4 -30 25 -30 21 0 25 -5 25 -30 l0 -30 60 0 60 0 0 30 c0 25 -4 30 -25 30 -21 0 -25 5 -25 30 l0 30 65 0 c63 0 65 -1 65 -25 0 -21 5 -25 30 -25 28 0 30 -3 30 -35 0 -32 2 -35 30 -35 28 0 30 3 30 35 0 32 2 35 29 35 26 0 30 -4 33 -30 l3 -31 47 30 c26 16 52 39 58 50 11 21 9 21 -110 21 l-120 0 0 35 0 35 -95 0 -95 0 0 30 0 30 85 0 85 0 0 30 0 30 -120 0 -120 0 0 -90z"/>
 <path d="M630 930 l0 -30 65 0 65 0 0 30 0 30 -65 0 -65 0 0 -30z"/>
 <path d="M320 826 c0 -3 14 -14 30 -26 l30 -21 0 25 c0 22 -4 26 -30 26 -16 0 -30 -2 -30 -4z"/>
 <path d="M1710 715 l0 -55 35 0 35 0 0 55 0 55 -35 0 -35 0 0 -55z"/>
 <path d="M2600 500 c0 -27 3 -30 30 -30 27 0 30 3 30 30 0 27 -3 30 -30 30 -27 0 -30 -3 -30 -30z"/>
 </g>

</svg>